<?xml version="1.0" encoding="UTF-8"?>
<svg width="500px" height="835px" viewBox="0 0 500 835" version="1.1" xmlns="http://www.w3.org/2000/svg" xmlns:xlink="http://www.w3.org/1999/xlink">
    <!-- Generator: Sketch 59.1 (86144) - https://sketch.com -->
    <title> </title>
    <desc>Created with Sketch.</desc>
    <defs>
        <polygon id="path-1" points="-9.77011494e-06 0 21.1034385 0 21.1034385 20.9999806 -9.77011494e-06 20.9999806"></polygon>
        <polygon id="path-3" points="0.114477212 0.0832161491 26.196311 0.0832161491 26.196311 25.8385093 0.114477212 25.8385093"></polygon>
        <polygon id="path-5" points="0.0656836461 0.0480093168 15.0306702 0.0480093168 15.0306702 14.9068323 0.0656836461 14.9068323"></polygon>
    </defs>
    <g id="Page-1" stroke="none" stroke-width="1" fill="none" fill-rule="evenodd">
        <g id="-">
            <g id="etiqa_logo_wh" fill="#FFFFFF" fill-rule="nonzero">
                <polygon id="Stroke-1" points="40.2234564 29.5484496 44.3701755 29.5484496 44.3701755 4.57804792 54.7367978 4.57804792 54.7367978 0.416314306 29.8568341 0.416314306 29.8568341 4.57804792 40.2234564 4.57804792"></polygon>
                <polygon id="Stroke-2" points="0.000351089588 4.57804792 24.8806659 4.57804792 24.8806659 0.416314306 0.000351089588 0.416314306"></polygon>
                <polygon id="Stroke-4" points="0.000351089588 17.0632488 24.8806659 17.0632488 24.8806659 12.9015152 0.000351089588 12.9015152"></polygon>
                <polygon id="Stroke-5" points="0.000351089588 29.5484496 24.8806659 29.5484496 24.8806659 25.3863636 0.000351089588 25.3863636"></polygon>
                <polygon id="Stroke-7" points="59.7129661 29.5484496 63.8596852 29.5484496 63.8596852 0.416314306 59.7129661 0.416314306"></polygon>
                <path d="M83.7640424,25.8028894 C77.8190424,25.8028894 72.9824322,20.9491191 72.9824322,14.9825934 C72.9824322,9.01606765 77.8190424,4.16194503 83.7640424,4.16194503 C89.7090424,4.16194503 94.5456525,9.01606765 94.5456525,14.9825934 C94.5456525,17.2151515 93.8680496,19.2916138 92.7091029,21.0167724 L87.5256162,15.8145173 L84.593316,18.7574348 L89.7768027,23.9596899 C88.057868,25.122833 85.988546,25.8028894 83.7640424,25.8028894 Z M98.6923717,14.9825934 C98.6923717,6.7081043 92.0086792,0.00021141649 83.7640424,0.00021141649 C75.5197567,0.00021141649 68.8357131,6.7081043 68.8357131,14.9825934 C68.8357131,23.2567301 75.5197567,29.9649753 83.7640424,29.9649753 C87.1387155,29.9649753 90.2514758,28.8402396 92.7519358,26.9452431 L95.7600714,29.9649753 L98.6923717,27.0220578 L95.683885,24.0026779 C97.5720448,21.4935166 98.6923717,18.3691332 98.6923717,14.9825934 Z" id="Stroke-8"></path>
                <polygon id="Stroke-11" points="124.935125 21.2249471 128.133902 29.5484144 132.695609 29.5484144 121.499362 0.41627907 116.938006 0.41627907 123.335561 17.0628612 110.564326 17.0628612 110.5401 17.0628612 116.938006 0.41627907 112.376299 0.41627907 101.180403 29.5484144 105.741759 29.5484144 108.940536 21.2249471"></polygon>
                <polygon id="Stroke-13" points="133.952685 1.32413672 133.952685 7.49045102 132.978412 7.49045102 132.978412 1.32413672 130.622249 1.32413672 130.622249 0.416102889 136.308847 0.416102889 136.308847 1.32413672"></polygon>
                <polygon id="Stroke-15" points="143.953262 7.4906272 143.953262 1.9825229 141.547245 7.4906272 140.652668 7.4906272 138.266663 1.9825229 138.266663 7.4906272 137.30222 7.4906272 137.30222 0.41627907 138.624424 0.41627907 141.109787 6.17350247 143.615162 0.41627907 144.917705 0.41627907 144.917705 7.4906272"></polygon>
            </g>
            <g id="etiqa_logo_bk" transform="translate(165.000000, 0.000000)" fill="#000000" fill-rule="nonzero">
                <polygon id="Stroke-1" points="40.2234564 29.5484496 44.3701755 29.5484496 44.3701755 4.57804792 54.7367978 4.57804792 54.7367978 0.416314306 29.8568341 0.416314306 29.8568341 4.57804792 40.2234564 4.57804792"></polygon>
                <polygon id="Stroke-2" points="0.000351089588 4.57804792 24.8806659 4.57804792 24.8806659 0.416314306 0.000351089588 0.416314306"></polygon>
                <polygon id="Stroke-4" points="0.000351089588 17.0632488 24.8806659 17.0632488 24.8806659 12.9015152 0.000351089588 12.9015152"></polygon>
                <polygon id="Stroke-5" points="0.000351089588 29.5484496 24.8806659 29.5484496 24.8806659 25.3863636 0.000351089588 25.3863636"></polygon>
                <polygon id="Stroke-7" points="59.7129661 29.5484496 63.8596852 29.5484496 63.8596852 0.416314306 59.7129661 0.416314306"></polygon>
                <path d="M83.7640424,25.8028894 C77.8190424,25.8028894 72.9824322,20.9491191 72.9824322,14.9825934 C72.9824322,9.01606765 77.8190424,4.16194503 83.7640424,4.16194503 C89.7090424,4.16194503 94.5456525,9.01606765 94.5456525,14.9825934 C94.5456525,17.2151515 93.8680496,19.2916138 92.7091029,21.0167724 L87.5256162,15.8145173 L84.593316,18.7574348 L89.7768027,23.9596899 C88.057868,25.122833 85.988546,25.8028894 83.7640424,25.8028894 Z M98.6923717,14.9825934 C98.6923717,6.7081043 92.0086792,0.00021141649 83.7640424,0.00021141649 C75.5197567,0.00021141649 68.8357131,6.7081043 68.8357131,14.9825934 C68.8357131,23.2567301 75.5197567,29.9649753 83.7640424,29.9649753 C87.1387155,29.9649753 90.2514758,28.8402396 92.7519358,26.9452431 L95.7600714,29.9649753 L98.6923717,27.0220578 L95.683885,24.0026779 C97.5720448,21.4935166 98.6923717,18.3691332 98.6923717,14.9825934 Z" id="Stroke-8"></path>
                <polygon id="Stroke-11" points="124.935125 21.2249471 128.133902 29.5484144 132.695609 29.5484144 121.499362 0.41627907 116.938006 0.41627907 123.335561 17.0628612 110.564326 17.0628612 110.5401 17.0628612 116.938006 0.41627907 112.376299 0.41627907 101.180403 29.5484144 105.741759 29.5484144 108.940536 21.2249471"></polygon>
                <polygon id="Stroke-13" points="133.952685 1.32413672 133.952685 7.49045102 132.978412 7.49045102 132.978412 1.32413672 130.622249 1.32413672 130.622249 0.416102889 136.308847 0.416102889 136.308847 1.32413672"></polygon>
                <polygon id="Stroke-15" points="143.953262 7.4906272 143.953262 1.9825229 141.547245 7.4906272 140.652668 7.4906272 138.266663 1.9825229 138.266663 7.4906272 137.30222 7.4906272 137.30222 0.41627907 138.624424 0.41627907 141.109787 6.17350247 143.615162 0.41627907 144.917705 0.41627907 144.917705 7.4906272"></polygon>
            </g>
            <g id="etiqa_logo_wh2" transform="translate(0.000000, 57.000000)" fill="#000000" fill-rule="nonzero">
                <polygon id="Stroke-1" points="26.9081053 19.6989664 29.6821174 19.6989664 29.6821174 3.05203195 36.6170303 3.05203195 36.6170303 0.277542871 19.9731925 0.277542871 19.9731925 3.05203195 26.9081053 3.05203195"></polygon>
                <polygon id="Stroke-2" points="0.000234866828 3.05203195 16.6443075 3.05203195 16.6443075 0.277542871 0.000234866828 0.277542871"></polygon>
                <polygon id="Stroke-4" points="0.000234866828 11.3754992 16.6443075 11.3754992 16.6443075 8.6010101 0.000234866828 8.6010101"></polygon>
                <polygon id="Stroke-5" points="0.000234866828 19.6989664 16.6443075 19.6989664 16.6443075 16.9242424 0.000234866828 16.9242424"></polygon>
                <polygon id="Stroke-7" points="39.9459153 19.6989664 42.7199274 19.6989664 42.7199274 0.277542871 39.9459153 0.277542871"></polygon>
                <path d="M56.0352559,17.2019262 C52.0582559,17.2019262 48.8227305,13.9660794 48.8227305,9.98839558 C48.8227305,6.01071177 52.0582559,2.77463002 56.0352559,2.77463002 C60.0122559,2.77463002 63.2477814,6.01071177 63.2477814,9.98839558 C63.2477814,11.4767677 62.7944884,12.8610759 62.019193,14.0111816 L58.5516191,10.5430115 L56.5900114,12.5049565 L60.0575852,15.9731266 C58.9076772,16.7485553 57.5233722,17.2019262 56.0352559,17.2019262 Z M66.0217935,9.98839558 C66.0217935,4.47206953 61.5506337,0.000140944327 56.0352559,0.000140944327 C50.5201131,0.000140944327 46.0487184,4.47206953 46.0487184,9.98839558 C46.0487184,15.5044867 50.5201131,19.9766502 56.0352559,19.9766502 C58.2927959,19.9766502 60.3751252,19.2268264 62.0478467,17.9634954 L64.0601857,19.9766502 L66.0217935,18.0147052 L64.0092196,16.0017853 C65.2723334,14.329011 66.0217935,12.2460888 66.0217935,9.98839558 Z" id="Stroke-8"></path>
                <polygon id="Stroke-11" points="83.5772903 14.1499648 85.717162 19.6989429 88.7687867 19.6989429 81.2788835 0.27751938 78.2274937 0.27751938 82.507237 11.3752408 73.9637213 11.3752408 73.9475155 11.3752408 78.2274937 0.27751938 75.175869 0.27751938 67.6862007 19.6989429 70.7375906 19.6989429 72.8774622 14.1499648"></polygon>
                <polygon id="Stroke-13" points="89.6097274 0.882757811 89.6097274 4.99363401 88.9579719 4.99363401 88.9579719 0.882757811 87.3817806 0.882757811 87.3817806 0.277401926 91.1859186 0.277401926 91.1859186 0.882757811"></polygon>
                <polygon id="Stroke-15" points="96.299768 4.99375147 96.299768 1.32168194 94.6902257 4.99375147 94.091785 4.99375147 92.49563 1.32168194 92.49563 4.99375147 91.8504508 4.99375147 91.8504508 0.27751938 92.7349593 0.27751938 94.3975816 4.11566831 96.0735913 0.27751938 96.9449472 0.27751938 96.9449472 4.99375147"></polygon>
            </g>
            <g id="etiqa_logo_bk2" transform="translate(117.000000, 57.000000)" fill="#FFFFFF" fill-rule="nonzero">
                <polygon id="Stroke-1" points="26.9081053 19.6989664 29.6821174 19.6989664 29.6821174 3.05203195 36.6170303 3.05203195 36.6170303 0.277542871 19.9731925 0.277542871 19.9731925 3.05203195 26.9081053 3.05203195"></polygon>
                <polygon id="Stroke-2" points="0.000234866828 3.05203195 16.6443075 3.05203195 16.6443075 0.277542871 0.000234866828 0.277542871"></polygon>
                <polygon id="Stroke-4" points="0.000234866828 11.3754992 16.6443075 11.3754992 16.6443075 8.6010101 0.000234866828 8.6010101"></polygon>
                <polygon id="Stroke-5" points="0.000234866828 19.6989664 16.6443075 19.6989664 16.6443075 16.9242424 0.000234866828 16.9242424"></polygon>
                <polygon id="Stroke-7" points="39.9459153 19.6989664 42.7199274 19.6989664 42.7199274 0.277542871 39.9459153 0.277542871"></polygon>
                <path d="M56.0352559,17.2019262 C52.0582559,17.2019262 48.8227305,13.9660794 48.8227305,9.98839558 C48.8227305,6.01071177 52.0582559,2.77463002 56.0352559,2.77463002 C60.0122559,2.77463002 63.2477814,6.01071177 63.2477814,9.98839558 C63.2477814,11.4767677 62.7944884,12.8610759 62.019193,14.0111816 L58.5516191,10.5430115 L56.5900114,12.5049565 L60.0575852,15.9731266 C58.9076772,16.7485553 57.5233722,17.2019262 56.0352559,17.2019262 Z M66.0217935,9.98839558 C66.0217935,4.47206953 61.5506337,0.000140944327 56.0352559,0.000140944327 C50.5201131,0.000140944327 46.0487184,4.47206953 46.0487184,9.98839558 C46.0487184,15.5044867 50.5201131,19.9766502 56.0352559,19.9766502 C58.2927959,19.9766502 60.3751252,19.2268264 62.0478467,17.9634954 L64.0601857,19.9766502 L66.0217935,18.0147052 L64.0092196,16.0017853 C65.2723334,14.329011 66.0217935,12.2460888 66.0217935,9.98839558 Z" id="Stroke-8"></path>
                <polygon id="Stroke-11" points="83.5772903 14.1499648 85.717162 19.6989429 88.7687867 19.6989429 81.2788835 0.27751938 78.2274937 0.27751938 82.507237 11.3752408 73.9637213 11.3752408 73.9475155 11.3752408 78.2274937 0.27751938 75.175869 0.27751938 67.6862007 19.6989429 70.7375906 19.6989429 72.8774622 14.1499648"></polygon>
                <polygon id="Stroke-13" points="89.6097274 0.882757811 89.6097274 4.99363401 88.9579719 4.99363401 88.9579719 0.882757811 87.3817806 0.882757811 87.3817806 0.277401926 91.1859186 0.277401926 91.1859186 0.882757811"></polygon>
                <polygon id="Stroke-15" points="96.299768 4.99375147 96.299768 1.32168194 94.6902257 4.99375147 94.091785 4.99375147 92.49563 1.32168194 92.49563 4.99375147 91.8504508 4.99375147 91.8504508 0.27751938 92.7349593 0.27751938 94.3975816 4.11566831 96.0735913 0.27751938 96.9449472 0.27751938 96.9449472 4.99375147"></polygon>
            </g>
            <g id="ico_back_wh" stroke-linecap="round" stroke-linejoin="round" transform="translate(235.000000, 58.000000)" stroke="#FFFFFF" stroke-width="2">
                <line x1="0" y1="9" x2="18" y2="9" id="Stroke-1"></line>
                <path d="M0,9 L10,8.8817842e-16 L0,9 Z M0,9 L10,18 L0,9 Z" id="Combined-Shape"></path>
            </g>
            <g id="ico_back_bk" stroke-linecap="round" stroke-linejoin="round" transform="translate(276.000000, 58.000000)" stroke="#000000" stroke-width="2">
                <line x1="0" y1="9" x2="18" y2="9" id="Stroke-1"></line>
                <path d="M0,9 L10,8.8817842e-16 L0,9 Z M0,9 L10,18 L0,9 Z" id="Combined-Shape"></path>
            </g>
            <g id="etiqa_logo_bk3" transform="translate(0.000000, 104.000000)" fill="#000000" fill-rule="nonzero">
                <polygon id="Stroke-1" points="20.2504298 14.7742248 22.3380884 14.7742248 22.3380884 2.28902396 27.5571465 2.28902396 27.5571465 0.208157153 15.0313717 0.208157153 15.0313717 2.28902396 20.2504298 2.28902396"></polygon>
                <polygon id="Stroke-2" points="0.000176755448 2.28902396 12.5261283 2.28902396 12.5261283 0.208157153 0.000176755448 0.208157153"></polygon>
                <polygon id="Stroke-4" points="0.000176755448 8.53162438 12.5261283 8.53162438 12.5261283 6.45075758 0.000176755448 6.45075758"></polygon>
                <polygon id="Stroke-5" points="0.000176755448 14.7742248 12.5261283 14.7742248 12.5261283 12.6931818 0.000176755448 12.6931818"></polygon>
                <polygon id="Stroke-7" points="30.0623898 14.7742248 32.1500484 14.7742248 32.1500484 0.208157153 30.0623898 0.208157153"></polygon>
                <path d="M42.1708627,12.9014447 C39.1778627,12.9014447 36.7428797,10.4745595 36.7428797,7.49129669 C36.7428797,4.50803383 39.1778627,2.08097252 42.1708627,2.08097252 C45.1638627,2.08097252 47.5988458,4.50803383 47.5988458,7.49129669 C47.5988458,8.60757576 47.2577077,9.64580691 46.674238,10.5083862 L44.0646206,7.90725863 L42.5883591,9.37871741 L45.1979765,11.979845 C44.3325818,12.5614165 43.2907852,12.9014447 42.1708627,12.9014447 Z M49.6865044,7.49129669 C49.6865044,3.35405215 46.3216109,0.000105708245 42.1708627,0.000105708245 C38.0202913,0.000105708245 34.6552211,3.35405215 34.6552211,7.49129669 C34.6552211,11.628365 38.0202913,14.9824877 42.1708627,14.9824877 C43.8698361,14.9824877 45.4369499,14.4201198 46.6958022,13.4726216 L48.2102429,14.9824877 L49.6865044,13.5110289 L48.1718869,12.001339 C49.1224777,10.7467583 49.6865044,9.1845666 49.6865044,7.49129669 Z" id="Stroke-8"></path>
                <polygon id="Stroke-11" points="62.8983731 10.6124736 64.508792 14.7742072 66.8053755 14.7742072 61.1686443 0.208139535 58.8722375 0.208139535 62.0930753 8.53143058 55.6634191 8.53143058 55.651223 8.53143058 58.8722375 0.208139535 56.575654 0.208139535 50.9390995 14.7742072 53.2355063 14.7742072 54.8459252 10.6124736"></polygon>
                <polygon id="Stroke-13" points="67.4382484 0.662068358 67.4382484 3.74522551 66.9477521 3.74522551 66.9477521 0.662068358 65.7615462 0.662068358 65.7615462 0.208051445 68.6244542 0.208051445 68.6244542 0.662068358"></polygon>
                <polygon id="Stroke-15" points="72.4730213 3.7453136 72.4730213 0.991261452 71.2617162 3.7453136 70.8113433 3.7453136 69.6101133 0.991261452 69.6101133 3.7453136 69.1245661 3.7453136 69.1245661 0.208139535 69.7902271 0.208139535 71.0414789 3.08675123 72.3028058 0.208139535 72.9585685 0.208139535 72.9585685 3.7453136"></polygon>
            </g>
            <g id="etiqa_logo_wh" transform="translate(83.000000, 104.000000)" fill="#FFFFFF" fill-rule="nonzero">
                <polygon id="Stroke-1" points="20.2504298 14.7742248 22.3380884 14.7742248 22.3380884 2.28902396 27.5571465 2.28902396 27.5571465 0.208157153 15.0313717 0.208157153 15.0313717 2.28902396 20.2504298 2.28902396"></polygon>
                <polygon id="Stroke-2" points="0.000176755448 2.28902396 12.5261283 2.28902396 12.5261283 0.208157153 0.000176755448 0.208157153"></polygon>
                <polygon id="Stroke-4" points="0.000176755448 8.53162438 12.5261283 8.53162438 12.5261283 6.45075758 0.000176755448 6.45075758"></polygon>
                <polygon id="Stroke-5" points="0.000176755448 14.7742248 12.5261283 14.7742248 12.5261283 12.6931818 0.000176755448 12.6931818"></polygon>
                <polygon id="Stroke-7" points="30.0623898 14.7742248 32.1500484 14.7742248 32.1500484 0.208157153 30.0623898 0.208157153"></polygon>
                <path d="M42.1708627,12.9014447 C39.1778627,12.9014447 36.7428797,10.4745595 36.7428797,7.49129669 C36.7428797,4.50803383 39.1778627,2.08097252 42.1708627,2.08097252 C45.1638627,2.08097252 47.5988458,4.50803383 47.5988458,7.49129669 C47.5988458,8.60757576 47.2577077,9.64580691 46.674238,10.5083862 L44.0646206,7.90725863 L42.5883591,9.37871741 L45.1979765,11.979845 C44.3325818,12.5614165 43.2907852,12.9014447 42.1708627,12.9014447 Z M49.6865044,7.49129669 C49.6865044,3.35405215 46.3216109,0.000105708245 42.1708627,0.000105708245 C38.0202913,0.000105708245 34.6552211,3.35405215 34.6552211,7.49129669 C34.6552211,11.628365 38.0202913,14.9824877 42.1708627,14.9824877 C43.8698361,14.9824877 45.4369499,14.4201198 46.6958022,13.4726216 L48.2102429,14.9824877 L49.6865044,13.5110289 L48.1718869,12.001339 C49.1224777,10.7467583 49.6865044,9.1845666 49.6865044,7.49129669 Z" id="Stroke-8"></path>
                <polygon id="Stroke-11" points="62.8983731 10.6124736 64.508792 14.7742072 66.8053755 14.7742072 61.1686443 0.208139535 58.8722375 0.208139535 62.0930753 8.53143058 55.6634191 8.53143058 55.651223 8.53143058 58.8722375 0.208139535 56.575654 0.208139535 50.9390995 14.7742072 53.2355063 14.7742072 54.8459252 10.6124736"></polygon>
                <polygon id="Stroke-13" points="67.4382484 0.662068358 67.4382484 3.74522551 66.9477521 3.74522551 66.9477521 0.662068358 65.7615462 0.662068358 65.7615462 0.208051445 68.6244542 0.208051445 68.6244542 0.662068358"></polygon>
                <polygon id="Stroke-15" points="72.4730213 3.7453136 72.4730213 0.991261452 71.2617162 3.7453136 70.8113433 3.7453136 69.6101133 0.991261452 69.6101133 3.7453136 69.1245661 3.7453136 69.1245661 0.208139535 69.7902271 0.208139535 71.0414789 3.08675123 72.3028058 0.208139535 72.9585685 0.208139535 72.9585685 3.7453136"></polygon>
            </g>
            <g id="btns_sns" transform="translate(0.000000, 130.000000)" fill="#000000" fill-rule="nonzero">
                <g id="btn_youtube" transform="translate(72.000000, 0.000000)">
                    <path d="M10.8333333,10.4628333 L16.1600833,12.9956667 L10.8333333,15.53825 L10.8333333,10.4628333 Z M17.8110833,18.30075 C15.535,18.4556667 10.46175,18.4545833 8.18783333,18.30075 C5.72216667,18.13175 5.43508333,16.9238333 5.41666667,13 C5.43508333,9.06858333 5.72541667,7.86933333 8.18783333,7.70033333 C10.46175,7.54541667 15.535,7.54433333 17.8110833,7.70033333 C20.2778333,7.86933333 20.5638333,9.07616667 20.5833333,13 C20.5638333,16.9314167 20.2745833,18.13175 17.8110833,18.30075 L17.8110833,18.30075 Z M13,0 C5.82075,0 0,5.82075 0,13 C0,20.17925 5.82075,26 13,26 C20.17925,26 26,20.17925 26,13 C26,5.82075 20.17925,0 13,0 L13,0 Z" id="Fill-1"></path>
                </g>
                <g id="btn_instagram" transform="translate(36.000000, 0.000000)">
                    <path d="M20.5378333,16.1265 C20.41325,18.8846667 18.8781667,20.4110833 16.1275833,20.5378333 C15.3183333,20.5746667 15.0594167,20.5833333 13,20.5833333 C10.9405833,20.5833333 10.68275,20.5746667 9.8735,20.5378333 C7.1175,20.4110833 5.58891667,18.8814167 5.46216667,16.1265 C5.42533333,15.3183333 5.41666667,15.0605 5.41666667,13 C5.41666667,10.9405833 5.42533333,10.68275 5.46216667,9.8735 C5.58891667,7.1175 7.11858333,5.58891667 9.8735,5.46325 C10.68275,5.42641667 10.9405833,5.41666667 13,5.41666667 C15.0594167,5.41666667 15.3183333,5.42641667 16.1275833,5.46325 C18.8846667,5.58891667 20.4143333,7.12183333 20.5378333,9.8735 C20.5746667,10.68275 20.5833333,10.9405833 20.5833333,13 C20.5833333,15.0605 20.5746667,15.3183333 20.5378333,16.1265 M13,0 C5.82075,0 0,5.82075 0,13 C0,20.17925 5.82075,26 13,26 C20.17925,26 26,20.17925 26,13 C26,5.82075 20.17925,0 13,0 M15.5285,13 C15.5285,14.3964167 14.3964167,15.5274167 13,15.5274167 C11.6035833,15.5274167 10.4715,14.3964167 10.4715,13 C10.4715,11.6046667 11.6035833,10.4725833 13,10.4725833 C14.3964167,10.4725833 15.5285,11.6046667 15.5285,13 M17.0473333,9.86266667 C16.5446667,9.86266667 16.1373333,9.45533333 16.1373333,8.95266667 C16.1373333,8.45 16.5446667,8.04266667 17.0473333,8.04266667 C17.5510833,8.04266667 17.9584167,8.45 17.9584167,8.95266667 C17.9584167,9.45533333 17.5510833,9.86266667 17.0473333,9.86266667 M13,16.8945833 C10.8495833,16.8945833 9.10541667,15.1515 9.10541667,13 C9.10541667,10.8495833 10.8495833,9.1065 13,9.1065 C15.1504167,9.1065 16.8945833,10.8495833 16.8945833,13 C16.8945833,15.1515 15.1504167,16.8945833 13,16.8945833 M16.06475,6.82825 C15.26525,6.79141667 15.02475,6.78383333 13,6.78383333 C10.97525,6.78383333 10.7358333,6.79141667 9.93633333,6.82825 C7.87908333,6.92141667 6.92141667,7.89641667 6.82716667,9.93633333 C6.79141667,10.7358333 6.78275,10.97525 6.78275,13 C6.78275,15.02475 6.79141667,15.2641667 6.82716667,16.0636667 C6.92141667,18.1003333 7.87583333,19.0796667 9.93633333,19.1739167 C10.73475,19.2096667 10.97525,19.2183333 13,19.2183333 C15.02475,19.2183333 15.26525,19.2096667 16.06475,19.1739167 C18.122,19.0796667 19.0785833,18.1025 19.1728333,16.0636667 C19.2085833,15.2641667 19.21725,15.02475 19.21725,13 C19.21725,10.97525 19.2085833,10.7358333 19.1728333,9.93633333 C19.0785833,7.89641667 18.1209167,6.92141667 16.06475,6.82825" id="Fill-1"></path>
                </g>
                <g id="btn_facebook">
                    <path d="M16.25,8.66666667 L14.7875,8.66666667 C14.2046667,8.66666667 14.0833333,8.90608333 14.0833333,9.5095 L14.0833333,10.8333333 L16.25,10.8333333 L16.0235833,13 L14.0833333,13 L14.0833333,20.5833333 L10.8333333,20.5833333 L10.8333333,13 L8.66666667,13 L8.66666667,10.8333333 L10.8333333,10.8333333 L10.8333333,8.333 C10.8333333,6.41658333 11.8419167,5.41666667 14.11475,5.41666667 L16.25,5.41666667 L16.25,8.66666667 Z M13,0 C5.82075,0 0,5.82075 0,13 C0,20.17925 5.82075,26 13,26 C20.17925,26 26,20.17925 26,13 C26,5.82075 20.17925,0 13,0 L13,0 Z" id="Fill-1"></path>
                </g>
            </g>
            <g id="btns_sns" transform="translate(108.000000, 130.000000)" fill="#FFFFFF" fill-rule="nonzero">
                <g id="btn_youtube" transform="translate(72.000000, 0.000000)">
                    <path d="M10.8333333,10.4628333 L16.1600833,12.9956667 L10.8333333,15.53825 L10.8333333,10.4628333 Z M17.8110833,18.30075 C15.535,18.4556667 10.46175,18.4545833 8.18783333,18.30075 C5.72216667,18.13175 5.43508333,16.9238333 5.41666667,13 C5.43508333,9.06858333 5.72541667,7.86933333 8.18783333,7.70033333 C10.46175,7.54541667 15.535,7.54433333 17.8110833,7.70033333 C20.2778333,7.86933333 20.5638333,9.07616667 20.5833333,13 C20.5638333,16.9314167 20.2745833,18.13175 17.8110833,18.30075 L17.8110833,18.30075 Z M13,0 C5.82075,0 0,5.82075 0,13 C0,20.17925 5.82075,26 13,26 C20.17925,26 26,20.17925 26,13 C26,5.82075 20.17925,0 13,0 L13,0 Z" id="Fill-1"></path>
                </g>
                <g id="btn_instagram" transform="translate(36.000000, 0.000000)">
                    <path d="M20.5378333,16.1265 C20.41325,18.8846667 18.8781667,20.4110833 16.1275833,20.5378333 C15.3183333,20.5746667 15.0594167,20.5833333 13,20.5833333 C10.9405833,20.5833333 10.68275,20.5746667 9.8735,20.5378333 C7.1175,20.4110833 5.58891667,18.8814167 5.46216667,16.1265 C5.42533333,15.3183333 5.41666667,15.0605 5.41666667,13 C5.41666667,10.9405833 5.42533333,10.68275 5.46216667,9.8735 C5.58891667,7.1175 7.11858333,5.58891667 9.8735,5.46325 C10.68275,5.42641667 10.9405833,5.41666667 13,5.41666667 C15.0594167,5.41666667 15.3183333,5.42641667 16.1275833,5.46325 C18.8846667,5.58891667 20.4143333,7.12183333 20.5378333,9.8735 C20.5746667,10.68275 20.5833333,10.9405833 20.5833333,13 C20.5833333,15.0605 20.5746667,15.3183333 20.5378333,16.1265 M13,0 C5.82075,0 0,5.82075 0,13 C0,20.17925 5.82075,26 13,26 C20.17925,26 26,20.17925 26,13 C26,5.82075 20.17925,0 13,0 M15.5285,13 C15.5285,14.3964167 14.3964167,15.5274167 13,15.5274167 C11.6035833,15.5274167 10.4715,14.3964167 10.4715,13 C10.4715,11.6046667 11.6035833,10.4725833 13,10.4725833 C14.3964167,10.4725833 15.5285,11.6046667 15.5285,13 M17.0473333,9.86266667 C16.5446667,9.86266667 16.1373333,9.45533333 16.1373333,8.95266667 C16.1373333,8.45 16.5446667,8.04266667 17.0473333,8.04266667 C17.5510833,8.04266667 17.9584167,8.45 17.9584167,8.95266667 C17.9584167,9.45533333 17.5510833,9.86266667 17.0473333,9.86266667 M13,16.8945833 C10.8495833,16.8945833 9.10541667,15.1515 9.10541667,13 C9.10541667,10.8495833 10.8495833,9.1065 13,9.1065 C15.1504167,9.1065 16.8945833,10.8495833 16.8945833,13 C16.8945833,15.1515 15.1504167,16.8945833 13,16.8945833 M16.06475,6.82825 C15.26525,6.79141667 15.02475,6.78383333 13,6.78383333 C10.97525,6.78383333 10.7358333,6.79141667 9.93633333,6.82825 C7.87908333,6.92141667 6.92141667,7.89641667 6.82716667,9.93633333 C6.79141667,10.7358333 6.78275,10.97525 6.78275,13 C6.78275,15.02475 6.79141667,15.2641667 6.82716667,16.0636667 C6.92141667,18.1003333 7.87583333,19.0796667 9.93633333,19.1739167 C10.73475,19.2096667 10.97525,19.2183333 13,19.2183333 C15.02475,19.2183333 15.26525,19.2096667 16.06475,19.1739167 C18.122,19.0796667 19.0785833,18.1025 19.1728333,16.0636667 C19.2085833,15.2641667 19.21725,15.02475 19.21725,13 C19.21725,10.97525 19.2085833,10.7358333 19.1728333,9.93633333 C19.0785833,7.89641667 18.1209167,6.92141667 16.06475,6.82825" id="Fill-1"></path>
                </g>
                <g id="btn_facebook">
                    <path d="M16.25,8.66666667 L14.7875,8.66666667 C14.2046667,8.66666667 14.0833333,8.90608333 14.0833333,9.5095 L14.0833333,10.8333333 L16.25,10.8333333 L16.0235833,13 L14.0833333,13 L14.0833333,20.5833333 L10.8333333,20.5833333 L10.8333333,13 L8.66666667,13 L8.66666667,10.8333333 L10.8333333,10.8333333 L10.8333333,8.333 C10.8333333,6.41658333 11.8419167,5.41666667 14.11475,5.41666667 L16.25,5.41666667 L16.25,8.66666667 Z M13,0 C5.82075,0 0,5.82075 0,13 C0,20.17925 5.82075,26 13,26 C20.17925,26 26,20.17925 26,13 C26,5.82075 20.17925,0 13,0 L13,0 Z" id="Fill-1"></path>
                </g>
            </g>
            <g id="ico_layer_more" transform="translate(216.000000, 129.000000)" fill="#FFFFFF" fill-rule="nonzero">
                <path d="M5.5,11 C2.46243388,11 0,8.53756612 0,5.5 C0,2.46243388 2.46243388,0 5.5,0 C8.53756612,0 11,2.46243388 11,5.5 C11,8.53756612 8.53756612,11 5.5,11 Z M6,5 L6,3 L5,3 L5,5 L3,5 L3,6 L5,6 L5,8 L6,8 L6,6 L8,6 L8,5 L6,5 Z" id="Combined-Shape"></path>
            </g>
            <g id="btn_close" transform="translate(237.000000, 130.000000)" fill-rule="nonzero">
                <circle id="Oval" fill="#000000" cx="10" cy="10" r="10"></circle>
                <polygon id="Fill-1" fill="#FFFFFF" points="12.08 6.8 10 8.88 7.92 6.8 6.8 7.92 8.88 10 6.8 12.08 7.92 13.2 10 11.12 12.08 13.2 13.2 12.08 11.12 10 13.2 7.92"></polygon>
            </g>
            <g id="ico_pg_wh" stroke-linecap="round" stroke-linejoin="round" transform="translate(26.000000, 191.000000)" stroke="#FFFFFF" stroke-width="2">
                <g id="ico_back_white">
                    <line x1="0" y1="9.5" x2="18" y2="9.5" id="Stroke-1"></line>
                    <line x1="0" y1="9.5" x2="9" y2="0.5" id="Stroke-3"></line>
                    <line x1="0" y1="9.5" x2="9" y2="18.5" id="Stroke-5"></line>
                </g>
                <g id="ico_back_white" transform="translate(89.000000, 9.500000) scale(-1, 1) translate(-89.000000, -9.500000) translate(80.000000, 0.000000)">
                    <line x1="0" y1="9.5" x2="18" y2="9.5" id="Stroke-1"></line>
                    <line x1="0" y1="9.5" x2="9" y2="0.5" id="Stroke-3"></line>
                    <line x1="0" y1="9.5" x2="9" y2="18.5" id="Stroke-5"></line>
                </g>
            </g>
            <g id="ico_pg_bk" stroke-linecap="round" stroke-linejoin="round" transform="translate(187.000000, 191.000000)" stroke="#000000" stroke-width="2">
                <g id="ico_back_white">
                    <line x1="0" y1="9.5" x2="18" y2="9.5" id="Stroke-1"></line>
                    <line x1="0" y1="9.5" x2="9" y2="0.5" id="Stroke-3"></line>
                    <line x1="0" y1="9.5" x2="9" y2="18.5" id="Stroke-5"></line>
                </g>
                <g id="ico_back_white" transform="translate(89.000000, 9.500000) scale(-1, 1) translate(-89.000000, -9.500000) translate(80.000000, 0.000000)">
                    <line x1="0" y1="9.5" x2="18" y2="9.5" id="Stroke-1"></line>
                    <line x1="0" y1="9.5" x2="9" y2="0.5" id="Stroke-3"></line>
                    <line x1="0" y1="9.5" x2="9" y2="18.5" id="Stroke-5"></line>
                </g>
            </g>
            <g id="ico_pg_wh_press" transform="translate(14.000000, 258.000000)" fill="#FFFFFF" fill-rule="nonzero">
                <path d="M22.5,45 C10.0735931,45 0,34.9264069 0,22.5 C0,10.0735931 10.0735931,0 22.5,0 C34.9264069,0 45,10.0735931 45,22.5 C45,34.9264069 34.9264069,45 22.5,45 Z M13.7636039,22.6863961 L21.8636039,30.7863961 C22.2150758,31.137868 22.7849242,31.137868 23.1363961,30.7863961 C23.487868,30.4349242 23.487868,29.8650758 23.1363961,29.5136039 L16.5727922,22.95 L30.6,22.95 C31.0970563,22.95 31.5,22.5470563 31.5,22.05 C31.5,21.5529437 31.0970563,21.15 30.6,21.15 L16.5727922,21.15 L23.1363961,14.5863961 C23.487868,14.2349242 23.487868,13.6650758 23.1363961,13.3136039 C22.7849242,12.962132 22.2150758,12.962132 21.8636039,13.3136039 L13.7636039,21.4136039 C13.6007359,21.5764719 13.5,21.8014719 13.5,22.05 C13.5,22.2985281 13.6007359,22.5235281 13.7636039,22.6863961 Z" id="Combined-Shape"></path>
                <path d="M103.5,45 C91.0735931,45 81,34.9264069 81,22.5 C81,10.0735931 91.0735931,0 103.5,0 C115.926407,0 126,10.0735931 126,22.5 C126,34.9264069 115.926407,45 103.5,45 Z M94.7636039,22.6863961 L102.863604,30.7863961 C103.215076,31.137868 103.784924,31.137868 104.136396,30.7863961 C104.487868,30.4349242 104.487868,29.8650758 104.136396,29.5136039 L97.572792,22.95 L111.6,22.95 C112.097056,22.95 112.5,22.5470563 112.5,22.05 C112.5,21.5529437 112.097056,21.15 111.6,21.15 L97.572792,21.15 L104.136396,14.5863961 C104.487868,14.2349242 104.487868,13.6650758 104.136396,13.3136039 C103.784924,12.962132 103.215076,12.962132 102.863604,13.3136039 L94.7636039,21.4136039 C94.6007359,21.5764719 94.5,21.8014719 94.5,22.05 C94.5,22.2985281 94.6007359,22.5235281 94.7636039,22.6863961 Z" id="Combined-Shape" transform="translate(103.500000, 22.500000) rotate(-180.000000) translate(-103.500000, -22.500000) "></path>
            </g>
            <g id="ico_pg_bk_press" transform="translate(176.000000, 258.000000)" fill="#000000" fill-rule="nonzero">
                <path d="M22.5,45 C10.0735931,45 0,34.9264069 0,22.5 C0,10.0735931 10.0735931,0 22.5,0 C34.9264069,0 45,10.0735931 45,22.5 C45,34.9264069 34.9264069,45 22.5,45 Z M13.7636039,22.6863961 L21.8636039,30.7863961 C22.2150758,31.137868 22.7849242,31.137868 23.1363961,30.7863961 C23.487868,30.4349242 23.487868,29.8650758 23.1363961,29.5136039 L16.5727922,22.95 L30.6,22.95 C31.0970563,22.95 31.5,22.5470563 31.5,22.05 C31.5,21.5529437 31.0970563,21.15 30.6,21.15 L16.5727922,21.15 L23.1363961,14.5863961 C23.487868,14.2349242 23.487868,13.6650758 23.1363961,13.3136039 C22.7849242,12.962132 22.2150758,12.962132 21.8636039,13.3136039 L13.7636039,21.4136039 C13.6007359,21.5764719 13.5,21.8014719 13.5,22.05 C13.5,22.2985281 13.6007359,22.5235281 13.7636039,22.6863961 Z" id="Combined-Shape"></path>
                <path d="M103.5,45 C91.0735931,45 81,34.9264069 81,22.5 C81,10.0735931 91.0735931,0 103.5,0 C115.926407,0 126,10.0735931 126,22.5 C126,34.9264069 115.926407,45 103.5,45 Z M94.7636039,22.6863961 L102.863604,30.7863961 C103.215076,31.137868 103.784924,31.137868 104.136396,30.7863961 C104.487868,30.4349242 104.487868,29.8650758 104.136396,29.5136039 L97.572792,22.95 L111.6,22.95 C112.097056,22.95 112.5,22.5470563 112.5,22.05 C112.5,21.5529437 112.097056,21.15 111.6,21.15 L97.572792,21.15 L104.136396,14.5863961 C104.487868,14.2349242 104.487868,13.6650758 104.136396,13.3136039 C103.784924,12.962132 103.215076,12.962132 102.863604,13.3136039 L94.7636039,21.4136039 C94.6007359,21.5764719 94.5,21.8014719 94.5,22.05 C94.5,22.2985281 94.6007359,22.5235281 94.7636039,22.6863961 Z" id="Combined-Shape" transform="translate(103.500000, 22.500000) rotate(-180.000000) translate(-103.500000, -22.500000) "></path>
            </g>
            <g id="btn_view_more" transform="translate(0.000000, 325.000000)" fill-rule="nonzero">
                <path d="M0,35 C0,54.33 15.67,70 35,70 C54.33,70 70,54.33 70,35 C70,15.67 54.33,0 35,0 C15.67,0 0,15.67 0,35 Z" id="Fill-1" fill="#FFFFFF"></path>
                <polygon id="Path" fill="#000000" points="43 37 37 37 37 43 33 43 33 37 27 37 27 33 33 33 33 27 37 27 37 33 43 33"></polygon>
            </g>
            <g id="btn_view_more_" opacity="0.400000006" transform="translate(80.000000, 325.000000)" fill="#000000" fill-rule="nonzero">
                <path d="M43,37 L37,37 L37,43 L33,43 L33,37 L27,37 L27,33 L33,33 L33,27 L37,27 L37,33 L43,33 L43,37 Z M0,35 C0,54.33 15.67,70 35,70 C54.33,70 70,54.33 70,35 C70,15.67 54.33,0 35,0 C15.67,0 0,15.67 0,35 Z" id="Fill-1"></path>
            </g>
            <g id="btn_close" transform="translate(160.000000, 325.000000)" fill-rule="nonzero">
                <circle id="Oval" fill="#FFFFFF" cx="35" cy="35" r="35"></circle>
                <polygon id="Fill-1" fill="#000000" points="40.2 27 35 32.2 29.8 27 27 29.8 32.2 35 27 40.2 29.8 43 35 37.8 40.2 43 43 40.2 37.8 35 43 29.8"></polygon>
            </g>
            <g id="etiqa_r" transform="translate(0.000000, 446.000000)">
                <g id="Group-17">
                    <polygon id="Fill-1" fill="#FFFFFF" fill-rule="nonzero" points="32.8275862 0.291598611 31.362069 0.291598611 29.8965517 0.291598611 28.4310345 0.291598611 26.9655172 0.291598611 24.0344828 0.291598611 21.1034483 0.291598611 21.1034483 3.20826528 24.0344828 3.20826528 26.9655172 3.20826528 28.4310345 3.20826528 28.4310345 6.12493194 28.4310345 9.04159861 28.4310345 11.9582653 28.4310345 14.8749319 28.4310345 17.7915986 28.4310345 20.7082653 31.362069 20.7082653 31.362069 17.7915986 31.362069 14.8749319 31.362069 11.9582653 31.362069 9.04159861 31.362069 6.12493194 31.362069 3.20826528 32.8275862 3.20826528 35.7586207 3.20826528 38.6896552 3.20826528 38.6896552 0.291598611 35.7586207 0.291598611"></polygon>
                    <polygon id="Fill-2" fill="#FFFFFF" fill-rule="nonzero" points="14.6552017 0.2916375 11.7240695 0.2916375 8.79313276 0.2916375 5.86209828 0.2916375 2.93096609 0.2916375 2.93103448e-05 0.2916375 2.93103448e-05 3.20830417 2.93096609 3.20830417 5.86209828 3.20830417 8.79313276 3.20830417 11.7240695 3.20830417 14.6552017 3.20830417 17.5862362 3.20830417 17.5862362 0.2916375"></polygon>
                    <polygon id="Fill-3" fill="#FFFFFF" fill-rule="nonzero" points="14.6552017 9.0416375 11.7240695 9.0416375 8.79313276 9.0416375 5.86209828 9.0416375 2.93096609 9.0416375 2.93103448e-05 9.0416375 2.93103448e-05 11.9583042 2.93096609 11.9583042 5.86209828 11.9583042 8.79313276 11.9583042 11.7240695 11.9583042 14.6552017 11.9583042 17.5862362 11.9583042 17.5862362 9.0416375"></polygon>
                    <polygon id="Fill-4" fill="#FFFFFF" fill-rule="nonzero" points="14.6552017 17.7916375 11.7240695 17.7916375 8.79313276 17.7916375 5.86209828 17.7916375 2.93096609 17.7916375 2.93103448e-05 17.7916375 2.93103448e-05 20.7083042 2.93096609 20.7083042 5.86209828 20.7083042 8.79313276 20.7083042 11.7240695 20.7083042 14.6552017 20.7083042 17.5862362 20.7083042 17.5862362 17.7916375"></polygon>
                    <polygon id="Fill-5" fill="#FFFFFF" fill-rule="nonzero" points="42.2068966 3.20826528 42.2068966 6.12493194 42.2068966 9.04159861 42.2068966 11.9582653 42.2068966 14.8749319 42.2068966 17.7915986 42.2068966 20.7082653 45.137931 20.7082653 45.137931 17.7915986 45.137931 14.8749319 45.137931 11.9582653 45.137931 9.04159861 45.137931 6.12493194 45.137931 3.20826528 45.137931 0.291598611 42.2068966 0.291598611"></polygon>
                    <polygon id="Fill-6" fill="#FFFFFF" fill-rule="nonzero" points="84.1206799 0.291598611 82.6551626 0.291598611 87.177358 11.9582653 86.6783983 11.9582653 84.5462661 11.9582653 82.4143293 11.9582653 80.2822948 11.9582653 78.150358 11.9582653 78.1329672 11.9582653 82.6551626 0.291598611 79.4310247 0.291598611 71.5172316 20.7081681 74.7413695 20.7081681 77.0024672 14.8749319 78.150358 14.8749319 80.2822948 14.8749319 82.4143293 14.8749319 84.5462661 14.8749319 86.6783983 14.8749319 88.307858 14.8749319 90.5689557 20.7081681 92.034473 20.7081681 93.7930937 20.7081681 85.8793006 0.291598611"></polygon>
                    <g id="Group-16" transform="translate(48.655172, 0.000000)">
                        <g id="Group-13">
                            <g id="Fill-11-Clipped">
                                <g>
                                    <mask id="mask-2" fill="white">
                                        <use xlink:href="#path-1"></use>
                                    </mask>
                                    <g id="path-7"></g>
                                    <path d="M10.5517144,-1.94444444e-05 C4.72423161,-1.94444444e-05 -9.77011494e-06,4.70106389 -9.77011494e-06,10.4999806 C-9.77011494e-06,16.2989944 4.72423161,20.9999806 10.5517144,20.9999806 C16.3791971,20.9999806 21.1034385,16.2989944 21.1034385,10.4999806 C21.1034385,4.70106389 16.3791971,-1.94444444e-05 10.5517144,-1.94444444e-05 M10.5517144,2.91664722 C14.7538408,2.91664722 18.172404,6.31855 18.172404,10.4999806 C18.172404,14.6814111 14.7538408,18.0833139 10.5517144,18.0833139 C6.34968563,18.0833139 2.93102471,14.6814111 2.93102471,10.4999806 C2.93102471,6.31855 6.34968563,2.91664722 10.5517144,2.91664722" id="Fill-11" fill="#FFFFFF" fill-rule="nonzero" mask="url(#mask-2)"></path>
                                </g>
                            </g>
                        </g>
                        <polygon id="Fill-14" fill="#FFFFFF" fill-rule="nonzero" points="14.1848879 16.1777486 15.3963822 17.3833042 16.6078764 18.5888597 17.8193707 19.7944153 19.0309626 20.9999708 21.1033994 18.9375958 19.8919052 17.7320403 18.6805086 16.5264847 17.4689167 15.3209292 16.2575201 14.1153736 13.3568707 11.2290403 11.2844339 13.2914153"></polygon>
                    </g>
                </g>
            </g>
            <g id="btn_menu" transform="translate(0.000000, 521.000000)">
                <polygon id="Combined-Shape" fill="#FFFFFF" fill-rule="nonzero" points="12 8 20 8 20 12 12 12 12 20 8 20 8 12 -1.91491267e-12 12 -1.91466774e-12 8 8 8 8 -4.54747351e-13 12 -4.54747351e-13"></polygon>
                <polygon id="Rectangle" points="9.0963348e-13 0 20 0 20 20 9.0963348e-13 20"></polygon>
            </g>
            <g id="btn_menu" transform="translate(0.000000, 669.000000)">
                <polygon id="Combined-Shape" fill="#000000" fill-rule="nonzero" points="12 8 20 8 20 12 12 12 12 20 8 20 8 12 -1.91491267e-12 12 -1.91466774e-12 8 8 8 8 -4.54747351e-13 12 -4.54747351e-13"></polygon>
                <polygon id="Rectangle" points="9.0963348e-13 0 20 0 20 20 9.0963348e-13 20"></polygon>
            </g>
            <g id="btn_prev" transform="translate(229.000000, 521.000000)">
                <polygon id="Combined-Shape" fill="#FFFFFF" fill-rule="nonzero" points="12 6.22182541 12 21 9 21 9 6.22182541 2.60050506 12.6213203 0.47918472 10.5 8.37867966 2.60050506 10.5 0.47918472 20.5208153 10.5 18.3994949 12.6213203"></polygon>
                <rect id="Rectangle" x="0" y="0" width="21" height="21"></rect>
            </g>
            <g id="btn_next" transform="translate(489.500000, 531.500000) scale(-1, 1) rotate(-180.000000) translate(-489.500000, -531.500000) translate(479.000000, 521.000000)">
                <polygon id="Combined-Shape" fill="#FFFFFF" fill-rule="nonzero" points="12 6.22182541 12 21 9 21 9 6.22182541 2.60050506 12.6213203 0.47918472 10.5 8.37867966 2.60050506 10.5 0.47918472 20.5208153 10.5 18.3994949 12.6213203"></polygon>
                <rect id="Rectangle" x="0" y="0" width="21" height="21"></rect>
            </g>
            <g id="btn_menu" transform="translate(0.000000, 595.000000)">
                <polygon id="Combined-Shape" fill="#000000" fill-rule="nonzero" transform="translate(15.000000, 15.000000) rotate(45.000000) translate(-15.000000, -15.000000) " points="17 13 25 13 25 17 17 17 17 25 13 25 13 17 5 17 5 13 13 13 13 5 17 5"></polygon>
                <polygon id="Rectangle" points="5 5 25 5 25 25 5 25"></polygon>
            </g>
            <g id="ETIQA_R_Top_White" transform="translate(0.000000, 739.000000)">
                <g id="Group-16">
                    <polygon id="Fill-1" fill="#FEFEFE" fill-rule="nonzero" points="35.138126 25.5590335 38.7606756 25.5590335 38.7606756 4.09627578 47.8168043 4.09627578 47.8168043 0.519257143 26.0819973 0.519257143 26.0819973 4.09627578 35.138126 4.09627578"></polygon>
                    <polygon id="Fill-2" fill="#FEFEFE" fill-rule="nonzero" points="0 4.09621118 21.734807 4.09621118 21.734807 0.519192547 0 0.519192547"></polygon>
                    <polygon id="Fill-3" fill="#FEFEFE" fill-rule="nonzero" points="0 14.8275901 21.734807 14.8275901 21.734807 11.2505714 0 11.2505714"></polygon>
                    <polygon id="Fill-4" fill="#FEFEFE" fill-rule="nonzero" points="0 25.5589689 21.734807 25.5589689 21.734807 21.9817888 0 21.9817888"></polygon>
                    <polygon id="Fill-5" fill="#FEFEFE" fill-rule="nonzero" points="52.1638311 25.5589689 55.7862172 25.5589689 55.7862172 0.519192547 52.1638311 0.519192547"></polygon>
                    <g id="Group-15" transform="translate(60.018767, 0.078323)">
                        <g id="Group-8">
                            <g id="Fill-6-Clipped">
                                <mask id="mask-4" fill="white">
                                    <use xlink:href="#path-3"></use>
                                </mask>
                                <g id="path-9"></g>
                                <path d="M13.1553941,22.2613776 C7.96205362,22.2613776 3.73702681,18.0892658 3.73702681,12.9609677 C3.73702681,7.83250807 7.96205362,3.66039627 13.1553941,3.66039627 C18.3488981,3.66039627 22.5739249,7.83250807 22.5739249,12.9609677 C22.5739249,14.8799615 21.9820777,16.664918 20.969445,18.147564 L16.4415442,13.6762099 L13.8800349,16.2056385 L18.4079357,20.6769925 C16.9064853,21.6769429 15.0988901,22.2613776 13.1553941,22.2613776 M26.196311,12.9609677 C26.196311,5.84875652 20.3578097,0.0832161491 13.1553941,0.0832161491 C5.95314209,0.0832161491 0.114477212,5.84875652 0.114477212,12.9609677 C0.114477212,20.0730174 5.95314209,25.8385578 13.1553941,25.8385578 C16.1033458,25.8385578 18.8225067,24.8721975 21.0068954,23.243241 L23.6349651,25.8385578 L26.196311,23.3091292 L23.5684048,20.7138124 C25.2178579,18.5571043 26.196311,15.8719988 26.196311,12.9609677" id="Fill-6" fill="#FEFEFE" fill-rule="nonzero" mask="url(#mask-4)"></path>
                            </g>
                        </g>
                        <polygon id="Fill-9" fill="#FEFEFE" fill-rule="nonzero" points="49.1216483 18.3264634 51.916037 25.4806621 55.9008252 25.4806621 46.1200558 0.440885714 42.1352676 0.440885714 47.7243721 14.7492832 36.5677501 14.7492832 36.5463265 14.7492832 42.1352676 0.440885714 38.1506429 0.440885714 28.3698735 25.4806621 32.3546617 25.4806621 35.1492139 18.3264634"></polygon>
                    </g>
                </g>
            </g>
            <g id="ETIQA_R_Top_Black" transform="translate(0.000000, 809.000000)" fill="#13110E" fill-rule="nonzero">
                <g id="Group-15">
                    <polygon id="Fill-1" points="35.138126 25.5589851 38.7606756 25.5589851 38.7606756 4.09638882 47.8168043 4.09638882 47.8168043 0.519208696 26.0819973 0.519208696 26.0819973 4.09638882 35.138126 4.09638882"></polygon>
                    <polygon id="Fill-2" points="0 4.09637267 21.734807 4.09637267 21.734807 0.519031056 0 0.519031056"></polygon>
                    <polygon id="Fill-3" points="0 14.8275901 21.734807 14.8275901 21.734807 11.2505714 0 11.2505714"></polygon>
                    <polygon id="Fill-4" points="0 25.5589689 21.734807 25.5589689 21.734807 21.9817888 0 21.9817888"></polygon>
                    <polygon id="Fill-5" points="52.1638311 25.5589689 55.7862172 25.5589689 55.7862172 0.519192547 52.1638311 0.519192547"></polygon>
                    <g id="Group-14" transform="translate(60.018767, 0.078323)">
                        <path d="M13.1553941,22.2614099 C7.96205362,22.2614099 3.73702681,18.0891366 3.73702681,12.9608385 C3.73702681,7.83254037 7.96205362,3.66042857 13.1553941,3.66042857 C18.3488981,3.66042857 22.5739249,7.83254037 22.5739249,12.9608385 C22.5739249,14.8798323 21.9820777,16.6649503 20.969445,18.1475963 L16.4415442,13.6762422 L13.8800349,16.2056708 L18.4079357,20.6770248 C16.9064853,21.6769752 15.0988901,22.2614099 13.1553941,22.2614099 M26.196311,12.9608385 C26.196311,5.84878882 20.3578097,0.0832484472 13.1553941,0.0832484472 C5.95314209,0.0832484472 0.114477212,5.84878882 0.114477212,12.9608385 C0.114477212,20.0728882 5.95314209,25.8384286 13.1553941,25.8384286 C16.1033458,25.8384286 18.8225067,24.8720683 21.0068954,23.2432733 L23.6349651,25.8384286 L26.196311,23.309 L23.5684048,20.7138447 C25.2178579,18.5571366 26.196311,15.8720311 26.196311,12.9608385" id="Fill-6"></path>
                        <polygon id="Fill-8" points="49.1216483 18.3264957 51.916037 25.4806944 55.9008252 25.4806944 46.1200558 0.440918012 42.1352676 0.440918012 47.7243721 14.7493155 36.5677501 14.7493155 36.5463265 14.7493155 42.1352676 0.440918012 38.1506429 0.440918012 28.3698735 25.4806944 32.3546617 25.4806944 35.1492139 18.3264957"></polygon>
                    </g>
                </g>
            </g>
            <g id="ETIQA_R_Top_White" transform="translate(205.000000, 739.000000)">
                <g id="Group-16">
                    <polygon id="Fill-1" fill="#FEFEFE" fill-rule="nonzero" points="20.1612198 14.7455963 22.2397319 14.7455963 22.2397319 2.36323602 27.4358713 2.36323602 27.4358713 0.299571429 14.9650804 0.299571429 14.9650804 2.36323602 20.1612198 2.36323602"></polygon>
                    <polygon id="Fill-2" fill="#FEFEFE" fill-rule="nonzero" points="0 2.36319876 12.4707909 2.36319876 12.4707909 0.299534161 0 0.299534161"></polygon>
                    <polygon id="Fill-3" fill="#FEFEFE" fill-rule="nonzero" points="0 8.55437888 12.4707909 8.55437888 12.4707909 6.49071429 0 6.49071429"></polygon>
                    <polygon id="Fill-4" fill="#FEFEFE" fill-rule="nonzero" points="0 14.745559 12.4707909 14.745559 12.4707909 12.6818012 0 12.6818012"></polygon>
                    <polygon id="Fill-5" fill="#FEFEFE" fill-rule="nonzero" points="29.930067 14.745559 32.0084853 14.745559 32.0084853 0.299534161 29.930067 0.299534161"></polygon>
                    <g id="Group-15" transform="translate(34.436997, 0.045186)">
                        <g id="Group-8">
                            <g id="Fill-6-Clipped">
                                <mask id="mask-6" fill="white">
                                    <use xlink:href="#path-5"></use>
                                </mask>
                                <g id="path-11"></g>
                                <path d="M7.54817694,12.8431025 C4.56839142,12.8431025 2.14419571,10.4361149 2.14419571,7.47748137 C2.14419571,4.51875466 4.56839142,2.11176708 7.54817694,2.11176708 C10.5280563,2.11176708 12.952252,4.51875466 12.952252,7.47748137 C12.952252,8.58459317 12.6126676,9.61437578 12.0316488,10.4697484 L9.43367292,7.89012112 L7.96395442,9.34940683 L10.5619303,11.9290342 C9.70044236,12.5059286 8.66329759,12.8431025 7.54817694,12.8431025 M15.0306702,7.47748137 C15.0306702,3.37428261 11.6807105,0.0480093168 7.54817694,0.0480093168 C3.41573727,0.0480093168 0.0656836461,3.37428261 0.0656836461,7.47748137 C0.0656836461,11.580587 3.41573727,14.9068602 7.54817694,14.9068602 C9.23962466,14.9068602 10.7997989,14.3493447 12.0531367,13.4095621 L13.5610456,14.9068602 L15.0306702,13.4475745 L13.5228552,11.9502764 C14.4692627,10.7060217 15.0306702,9.15692236 15.0306702,7.47748137" id="Fill-6" fill="#FEFEFE" fill-rule="nonzero" mask="url(#mask-6)"></path>
                            </g>
                        </g>
                        <polygon id="Fill-9" fill="#FEFEFE" fill-rule="nonzero" points="28.1845523 10.5729596 29.7878901 14.700382 32.074244 14.700382 26.4623271 0.254357143 24.1759732 0.254357143 27.3828365 8.50920186 20.981496 8.50920186 20.9692038 8.50920186 24.1759732 0.254357143 21.8897131 0.254357143 16.2777962 14.700382 18.5641501 14.700382 20.1675818 10.5729596"></polygon>
                    </g>
                </g>
            </g>
            <g id="ETIQA_R_Top_Black" transform="translate(355.000000, 739.000000)" fill="#13110E" fill-rule="nonzero">
                <g id="Group-15">
                    <polygon id="Fill-1" points="20.1612198 14.7455683 22.2397319 14.7455683 22.2397319 2.36330124 27.4358713 2.36330124 27.4358713 0.299543478 14.9650804 0.299543478 14.9650804 2.36330124 20.1612198 2.36330124"></polygon>
                    <polygon id="Fill-2" points="0 2.36329193 12.4707909 2.36329193 12.4707909 0.299440994 0 0.299440994"></polygon>
                    <polygon id="Fill-3" points="0 8.55437888 12.4707909 8.55437888 12.4707909 6.49071429 0 6.49071429"></polygon>
                    <polygon id="Fill-4" points="0 14.745559 12.4707909 14.745559 12.4707909 12.6818012 0 12.6818012"></polygon>
                    <polygon id="Fill-5" points="29.930067 14.745559 32.0084853 14.745559 32.0084853 0.299534161 29.930067 0.299534161"></polygon>
                    <g id="Group-14" transform="translate(34.436997, 0.045186)">
                        <path d="M7.54817694,12.8431211 C4.56839142,12.8431211 2.14419571,10.4360404 2.14419571,7.47740683 C2.14419571,4.51877329 4.56839142,2.11178571 7.54817694,2.11178571 C10.5280563,2.11178571 12.952252,4.51877329 12.952252,7.47740683 C12.952252,8.58451863 12.6126676,9.61439441 12.0316488,10.4697671 L9.43367292,7.89013975 L7.96395442,9.34942547 L10.5619303,11.9290528 C9.70044236,12.5059472 8.66329759,12.8431211 7.54817694,12.8431211 M15.0306702,7.47740683 C15.0306702,3.37430124 11.6807105,0.0480279503 7.54817694,0.0480279503 C3.41573727,0.0480279503 0.0656836461,3.37430124 0.0656836461,7.47740683 C0.0656836461,11.5805124 3.41573727,14.9067857 7.54817694,14.9067857 C9.23962466,14.9067857 10.7997989,14.3492702 12.0531367,13.4095807 L13.5610456,14.9067857 L15.0306702,13.4475 L13.5228552,11.950295 C14.4692627,10.7060404 15.0306702,9.15694099 15.0306702,7.47740683" id="Fill-6"></path>
                        <polygon id="Fill-8" points="28.1845523 10.5729783 29.7878901 14.7004006 32.074244 14.7004006 26.4623271 0.254375776 24.1759732 0.254375776 27.3828365 8.5092205 20.981496 8.5092205 20.9692038 8.5092205 24.1759732 0.254375776 21.8897131 0.254375776 16.2777962 14.7004006 18.5641501 14.7004006 20.1675818 10.5729783"></polygon>
                    </g>
                </g>
            </g>
        </g>
    </g>
</svg>