<?xml version="1.0" encoding="utf-8"?>
<!-- Generator: Adobe Illustrator 24.2.1, SVG Export Plug-In . SVG Version: 6.00 Build 0)  -->
<svg version="1.1" id="Layer_1" xmlns="http://www.w3.org/2000/svg" xmlns:xlink="http://www.w3.org/1999/xlink" x="0px" y="0px"
	 viewBox="0 0 100 100" style="enable-background:new 0 0 100 100;" xml:space="preserve">
<style type="text/css">
	.st0{clip-path:url(#SVGID_2_);fill:#FFFFFF;}
</style>
<g>
	<defs>
		<rect id="SVGID_1_" width="100" height="100"/>
	</defs>
	<clipPath id="SVGID_2_">
		<use xlink:href="#SVGID_1_"  style="overflow:visible;"/>
	</clipPath>
	<path class="st0" d="M99.28,48.74c0,2.16-1.75,3.91-3.91,3.91c-2.16,0-3.91-1.75-3.91-3.91c0-2.16,1.75-3.91,3.91-3.91
		C97.52,44.83,99.28,46.58,99.28,48.74"/>
	<path class="st0" d="M0.83,85.72c0-45.8,12.64-82.93,28.24-82.93c9.9,0,18.61,14.96,23.65,37.59c5.04-22.63,13.9-39.34,23.65-37.59
		c9.51,1.71,16.95,15.96,22.55,38.66l-8.5,0.96c-3.5-15.57-8.14-26.13-14.05-26.13c-10.44,0-18.92,31.01-19.05,69.44h0h-0.08
		c0,2.49-2.02,4.51-4.51,4.51c-2.49,0-4.51-2.02-4.51-4.51h-0.08h0c-0.13-38.44-8.61-69.44-19.05-69.44
		c-10.44,0-18.92,31.01-19.05,69.44H9.83c0.01,0.11,0.02,0.22,0.02,0.33c0,2.49-2.02,4.51-4.51,4.51s-4.51-2.02-4.51-4.51
		c0-0.11,0.01-0.22,0.02-0.33H0.83z"/>
	<path class="st0" d="M91.34,56.19c0,11.47-5.86,35.79-22.37,35.4c-0.11,0-0.21,0.02-0.31,0.06c-1.88,0.11-3.38,1.67-3.38,3.58
		c0,1.98,1.61,3.59,3.59,3.59c0.13,0,0.25-0.01,0.38-0.02c0.38,0.02,0.77,0.03,1.16,0.03c20.96,0,29.81-27.49,28.92-42.64H91.34z"/>
</g>
</svg>
