<svg id="Layer_1" data-name="Layer 1" xmlns="http://www.w3.org/2000/svg" viewBox="0 0 109.44 43.32"><title>free</title><path d="M24.6,37.5A62.69,62.69,0,0,1,34.23,37a35.5,35.5,0,0,1,9.87,1q3.42,1.05,3.42,3a1.36,1.36,0,0,1-.69,1.29,11.1,11.1,0,0,1-1.2.6,8,8,0,0,1-1.38.39l-1.59.33q-.72.15-1.89.27l-2,.21-2.22.24L34,44.58q-1.14.12-6,.9v.06Q28,47.7,26.16,57q.78.06,2.85.06t5.43-.33q3.36-.33,4.41-.33a2.87,2.87,0,0,1,1.77.54,1.52,1.52,0,0,1,.72,1.2A3.52,3.52,0,0,1,39.42,61a15.62,15.62,0,0,1-4.8,2,47.93,47.93,0,0,1-10.14,1.56q-1.8,7.62-2.19,9.33t-.81,3.27Q20.7,80.22,20,80.22q-1.26,0-3.42-2.82t-2.16-4.2q0-2.4,3-15.24t3.15-16.14v-.48A4.21,4.21,0,0,1,20.76,40Q21.42,38,24.6,37.5Z" transform="translate(-14.46 -36.96)"/><path d="M49.32,59.46,49,52.68q0-3.36,2.1-3.36a3.87,3.87,0,0,1,2.37.9A5.5,5.5,0,0,1,55.2,53a18.08,18.08,0,0,1,4.47-2.91A10.56,10.56,0,0,1,64,49q4.38,0,4.38,2.1A2.62,2.62,0,0,1,68,52.71q-.39.51-.6.75a5.26,5.26,0,0,1-.72.63l-.75.57q-1.38.9-2,1.26a18.4,18.4,0,0,0-4.62,4,16,16,0,0,0-2.88,6.57,60.11,60.11,0,0,1-3.15,10.29q-1.53,3.39-3.42,3.39A3,3,0,0,1,47,78.42,7.42,7.42,0,0,1,46.08,75a15.47,15.47,0,0,1,1.17-4.77,36.62,36.62,0,0,0,1.62-5.49A28,28,0,0,0,49.32,59.46Z" transform="translate(-14.46 -36.96)"/><path d="M90.63,65.82a16,16,0,0,1-8.19,2.34,32.7,32.7,0,0,1-6.9-.6A10.19,10.19,0,0,0,75,70.8a3.81,3.81,0,0,0,.54,2.31q.54.69,2.7.69A30.79,30.79,0,0,0,86,73q3.21-.84,3.33-.84,2.46,0,2.46,1.62,0,2.34-3.87,4.44a18.45,18.45,0,0,1-8.94,2.1A10.76,10.76,0,0,1,70.8,77.1a10.49,10.49,0,0,1-3.06-7.53,19.2,19.2,0,0,1,2.55-9.09,26.72,26.72,0,0,1,6.39-7.95,12,12,0,0,1,7.65-3.21q3.81,0,7,3.75t3.24,7.47Q94.62,63.48,90.63,65.82Zm-4.23-8A3.67,3.67,0,0,0,84,56.7a4.87,4.87,0,0,0-2.85,1.59,19.25,19.25,0,0,0-3.3,4.11,15.19,15.19,0,0,0,1.56.06q8.22,0,8.22-2.88Q87.66,59,86.4,57.84Z" transform="translate(-14.46 -36.96)"/><path d="M119.91,65.82a16,16,0,0,1-8.19,2.34,32.7,32.7,0,0,1-6.9-.6,10.19,10.19,0,0,0-.54,3.24,3.81,3.81,0,0,0,.54,2.31q.54.69,2.7.69a30.79,30.79,0,0,0,7.71-.84q3.21-.84,3.33-.84,2.46,0,2.46,1.62,0,2.34-3.87,4.44a18.45,18.45,0,0,1-8.94,2.1,10.76,10.76,0,0,1-8.13-3.18A10.49,10.49,0,0,1,97,69.57a19.2,19.2,0,0,1,2.55-9.09A26.72,26.72,0,0,1,106,52.53a12,12,0,0,1,7.65-3.21q3.81,0,7,3.75t3.24,7.47Q123.9,63.48,119.91,65.82Zm-4.23-8a3.67,3.67,0,0,0-2.37-1.14,4.87,4.87,0,0,0-2.85,1.59,19.25,19.25,0,0,0-3.3,4.11,15.19,15.19,0,0,0,1.56.06q8.22,0,8.22-2.88Q116.94,59,115.68,57.84Z" transform="translate(-14.46 -36.96)"/></svg>